<svg xmlns="http://www.w3.org/2000/svg" version="1.0" viewBox="0 0 2752 1536"><path d="M1537.5 137.7c-15.5.8-52.4 5.2-65.5 7.8-4.1.8-14.7 2.8-23.5 4.5-58.2 11.1-119.2 36.3-156.9 64.8-59.3 44.8-94.9 100.1-112.1 173.7-1.4 6-2.8 11.9-3 13-5.7 23.1-7.5 65.3-4.3 98.8 1.3 13.9.5 14.1 12.3-3.2l8.8-13 .4-12.8c2.4-85.4 22.2-142.4 68.2-196.3 3.1-3.6 6.6-7.9 7.9-9.5l2.3-3-.5 3.5c-2 12.4-2.5 43.1-1.3 71.9 1.7 38.2.8 55.1-3.8 75.7-6.6 29.3-7.8 32.3-16.1 41-41.5 43.7-76.9 96.9-98.2 147.9-29.1 69.7-35.4 115.4-23.7 173 15.5 77 78.9 150.2 154.5 178.3 80.4 30 167.8 21.7 232.9-22 92.2-62 133.8-167.6 106-269.8-8.2-30.3-24.2-69.1-41.3-100.5-1.8-3.3-5-9.2-7-13-5.1-9.5-14.5-25.3-17.3-29.1-1.3-1.7-2.3-3.4-2.3-3.7 0-.8-15.5-23.7-22.1-32.7-2.7-3.6-5.5-7.4-6.2-8.5-1.4-1.9-1.5-1.9-4.1 1.2-1.5 1.8-4.9 4.9-7.7 6.9-5.9 4.3-6.1 3.4 3.7 17.2 13.9 19.8 32.5 49.3 40.2 64.2 1.9 3.6 3.8 6.9 4.2 7.5 1.1 1.5 19 37 19 37.8 0 .4.8 2.6 1.9 5 8.7 19.5 18.8 49.7 22 65.2 4.2 21 4.6 24.9 4.6 47-.1 37.7-6.7 63.1-26.7 102.9-4.3 8.6-14.7 25-15.4 24.3-.3-.2.9-6 2.5-12.8 6.2-26.3 7.7-56.6 3.8-79.3-.1-.5 1.6-1.8 3.7-3 22.9-12.3 26.5-39.8 9.5-72.6-18.6-35.8-41.4-52.3-73.9-53.7-37-1.6-60 16.1-74.7 57.5-3.5 9.8-19.7 21.8-36.8 27.3-14.6 4.7-16.6 12.7-8.3 32.7 7.8 18.9 34 37.2 53.2 37.2 9 0 9.1.5 1.3 10.7-3.3 4.5-4.8 5.5-9.6 7-8.1 2.4-11.3 5.8-11.9 12.6-.5 6.5 1.8 9 7.2 8.1 14.9-2.6 26.6-12.4 35-29.1 4.6-9.2 7.4-12.5 12.4-14.6 2-.8 5.6-2.3 8-3.3 8.4-3.5 11.5-10.2 6.7-14.9-3-3.1-5.4-3.1-14.1-.1-26.2 9.3-43.7 7.5-61.2-6.3-6.3-5-6.3-5.6-1.1-10.6 6.7-6.6 8-9.4 7.3-15.9-.6-5.4-.6-5.6 2.1-6.6 2.8-1.1 13.2-8.3 19.1-13.3 4.1-3.5 8.7-12.6 11.4-22.5 5.5-19.9 20.4-33.8 40.8-38.1 32.7-6.9 66.9 20.7 78.2 62.9 4.9 18.5-2.4 32.1-18.6 34.6-14.9 2.2-26.7-22.2-25-51.8.7-13.4-.2-16.6-5.3-18.7-3.8-1.6-6.4-.8-9.6 3-4.4 5.3-3.5 37 1.5 52.2 5.8 17.6 16 28.6 30 32.2 5.5 1.5 5.7 2.2 6.4 22.5 1.3 40.5-12.3 84.7-33.6 108.6-12.2 13.7-30.8 28.4-45.5 35.8-8.7 4.3-10.5 4.5-7.2.8 8.5-9.3 22.4-30.5 26.8-40.9 6.9-16.1 7.2-23.4 1-26.7-6.5-3.5-11.9-.2-15.3 9.5-5.6 16.1-20.2 38.7-32.2 50-5.7 5.3-16.7 13.9-17.9 13.9-.3 0-2.3 1.2-4.4 2.6-10.6 7-30 12.3-44.7 12.4-49.6.1-75.2-51.6-40.6-82.1 9.9-8.7 13.4-10.4 28.2-14 20.6-4.9 32.8-19.2 34.5-40.7.9-9.7-.1-12.2-6.3-15.5-6.1-3.3-12.8-10.6-13.8-15-1.4-6.8-5.4-11.9-12.4-16.2-7.8-4.8-8.8-6.1-9.4-12.8-.8-8-2.8-17.7-3.7-17.7-.3 0-2.1 1.1-4 2.4-1.9 1.4-5.9 4.1-8.9 6.2-3 2-6.5 4.8-7.7 6.2l-2.2 2.6-1.1-2.8c-.6-1.6-2-4.2-3.1-5.8-1.2-1.6-2.8-5.4-3.6-8.5-1.6-6.4-5.7-13.3-7.7-13.3-2.1 0-10.2 6.8-18.6 15.6-41.1 43.2-60.4 103.7-47.9 150.4 2.3 8.8 6.4 19.4 8.8 23 .9 1.4 2.2 3.6 2.9 5 .6 1.4 1.9 3.5 2.8 4.7 2.6 3.6.5 2.8-10.7-4-16.1-9.8-24.9-16.1-36.4-26.1-64.3-56-91.7-136.4-74.3-218.1 1.9-9.3 16.9-54.6 18.8-57 .5-.6 2-4 3.4-7.7 4.8-12.8 29.1-57.5 33-60.7.8-.7 6.2-.4 16.7 1 60.9 7.8 117.8.9 178.4-21.5 10.3-3.8 36-16.8 43.5-22 3.6-2.5 7.9-5.2 9.5-6.2 11.6-6.5 42.7-33 53.5-45.5 47.4-54.7 72.4-114.2 81.6-193.5 2.5-22.1 3-79 .9-97.4-1-8-2-16.7-2.2-19.5-1-9.7-.6-9.5-23.2-9.3-10.8.1-22.3.3-25.6.5m10.5 24.4c0 2.8-21.3 31.4-37.3 50-21.3 24.9-55.9 59.3-82 81.5-5.6 4.8-12.1 10.6-14.4 12.8-4.8 4.5-5.6 4.4-4.3-.5 1.5-5.6 3-27.3 3.6-52.1.9-39.6 2.9-51.9 11-66.4 4.1-7.5 4.2-7.6 13.4-10.2 23.6-6.6 60.9-12.2 108.3-16.1.9 0 1.7.4 1.7 1m18.9 41.4c.2 25.5-2.2 58.7-5 69.7-1 3.9-7.4 7.3-20.4 10.9-5.2 1.5-63.9 1.9-65.3.5-.3-.4 6.6-8 15.5-16.9 8.8-8.9 18-18.5 20.4-21.2 2.4-2.8 4.6-5.2 4.9-5.5 7.4-7.1 27.7-32.1 39.3-48.3 8.7-12.2 9.1-12.6 9.8-9.1.4 1.6.7 10.6.8 19.9m-170.8-7.7c-4.3 11.8-6.1 28.3-7.1 66.2-1 38.2-2 47.6-7.4 65.2-3.5 11.5-10.7 18.9-42.1 43.8-4.9 3.9-17 14.4-26.8 23.3-17.8 16.1-21.5 19.2-22.2 18.6-.2-.2.4-6.3 1.2-13.4 1.7-14 2.1-41.4 1.3-84.5-.8-46.4 4.6-69.4 20.1-84.8 11.3-11.2 49.8-30.7 79.9-40.4 5.5-1.8 5.8-1.2 3.1 6m159.3 113.4c-1.6 10.3-11.7 41.6-16.5 51-3.5 6.9-14.2 12.7-29.3 15.8-17 3.6-31.5 3.2-68.1-1.5-24.2-3.2-41.8-4.4-54.5-3.7l-9.5.5 8.5-8c4.7-4.4 11-10.1 14-12.7s9.8-8.5 15-13.1c32.3-28.3 30.7-27.7 83.5-28.2 31.7-.2 38.3-.6 46-2.2 12.5-2.6 11.6-2.8 10.9 2.1m-143.8 85.3c7.2.8 22.5 2.8 34.1 4.4 33.7 4.8 58.3 4.8 70.8.1 3.8-1.4 3.2.3-4.3 12.1-6.9 11-11.3 16.5-24.1 30.4-19.7 21.3-24.8 24.4-43.1 26.3-14.1 1.5-29.1.1-60.5-5.8-29.2-5.5-54.2-8-79.3-8.1l-21.4-.1 2.9-3.1c15.8-17.2 46.7-44.4 54.8-48.2 18.4-8.7 41.2-11.3 70.1-8m-69.9 84.9c14.8 2.2 24.4 3.8 50.8 8.6 10.6 2 28.7 4.1 30 3.6.8-.3 1.7-.2 1.9.3 1 1.6-17.3 10.2-41.4 19.4-20.1 7.7-51.2 14.8-80.4 18.2-20 2.4-78.3 1.1-81.2-1.7-1.8-1.8 30.6-40.5 37.1-44.3 13.4-7.7 47.1-9.4 83.2-4.1m-23.2 280.5c1 4.5 6.1 11.8 9.4 13.5 1.6.9 6.9 1.9 11.8 2.2 4.8.4 9.9 1.3 11.3 2 1.4.8 4.6 2.2 7.1 3.3 5.4 2.2 10.3 7.8 14.9 17.1 2 3.9 5.6 8.8 9.2 12.3l6 5.8-1.2 4.6c-2.9 11.9-6.4 14.6-28.4 21.7-23.7 7.8-37.7 20.2-45.6 40.6-6.8 17.4-3 45 7.8 57.2 2.2 2.6.1 2.3-6.1-.8-29.3-14.8-45.2-45.1-43.4-83.4.8-18.9 6.1-38.1 16.9-61 5.3-11.5 14.5-25.3 22.1-33.4 5.8-6.1 7.1-6.4 8.2-1.7"/><path d="M1470.7 697.9c-2.4 4.2-2.2 5.3 2.3 10.4 8.9 10.1 25.2 8.4 30.5-3.2 3-6.7.9-8-8.7-5.8-9.6 2.3-10.5 2.2-15.8-1.3-5.6-3.7-6.2-3.7-8.3-.1m-221.9 313.3c-.3.7 1 4 2.8 7.4 1.8 3.5 3.7 9.2 4.4 13.3.9 5.2 1.7 7.5 3.3 8.7 2 1.4 0 1.5-23.7 1.2-29.3-.3-29.1-.3-30.4-7.6-1-6-2.3-5.4-5.3 2.5-3.1 8.4-9.5 18-14.7 22.2-2.2 1.7-4.7 4.7-5.6 6.6-3.9 8.1 5.1 16.1 14.3 12.9 3.9-1.4 10.8-12.3 11.6-18.1.3-2.7.9-6.4 1.3-8.3l.7-3.5 56.3-.3c47-.2 56.2 0 56.2 1.2 0 .7-.9 5.9-2.1 11.5-1.1 5.7-1.8 10.5-1.5 10.8 1.7 1.7 14.4-5.4 20.1-11.1 3.3-3.3 7.8-6.7 10-7.6s4.1-2.3 4.3-3.3c.5-2.5-3.5-8.1-7.3-10.3-1.6-1-4.4-3.3-6-5.2-3.8-4.3-5.3-4-12.2 2.8l-5.1 5h-46.6l2.7-2.8c3.5-3.6 3.9-13.4.8-17.4-2.7-3.3-11.6-7.7-17.6-8.4-2.7-.4-6.2-1.3-7.7-2-2-1-2.7-1.1-3-.2m266.7 4.4c-24.9 6.4-45.2 10.2-88.7 16.6-9.7 1.4-14.8 2.6-14.8 3.3 0 1.8 25.7 2.8 44.8 1.8 8.6-.4 16.3-.8 17.1-.8 1 0 1.4 2.2 1.7 8.7l.3 8.8H1401l-.6 2.6c-1.1 4.5-.2 4.7 27 4.2 14.1-.2 25.6 0 25.6.5 0 6.8-23.8 30.2-45.2 44.6-4.3 2.8-7.8 5.6-7.8 6.2 0 2.6 15.4-2.3 24.9-8 3.6-2.1 9.5-5.3 13.1-7.1s9.2-5.2 12.5-7.7c3.3-2.4 8.9-6.5 12.5-9.1 3.5-2.6 7.5-6.3 8.8-8.2 3.8-5.7 4.2-4.9 3.5 7.2-.3 6.3-.3 13.9.1 17.1l.7 5.7h8.3c11.9 0 11.6.6 11.6-22.3 0-21 .5-22.2 5.5-13.4 6.1 10.6 21.8 24.7 39 34.9 19.5 11.7 19 11.7 24.6 1.1 1.9-3.8 4.1-6.5 5.3-6.9 3.8-1 6.6-2.7 6.6-4 0-.8-1-1.6-2.2-1.8-26.5-5.7-41-11.1-54.5-20.3-6.2-4.2-11.3-7.9-11.3-8.2s13.8-.5 30.7-.3c28.4.3 30.8.2 32-1.4 1.7-2.4 1.6-4.4-.2-4.4-.8 0-2.9-1.3-4.7-2.9-13.8-12.1-15.8-12.5-20.5-4.3-3.8 6.5-2.4 6.2-27.3 5.9l-22.5-.2v-19l13.5-1.2c7.4-.6 17.9-1.2 23.4-1.3 10-.1 14.6-1.1 14.6-3 0-2.7-16.1-17.2-18.7-16.9-.4.1-6.6 1.6-13.8 3.5"/><path d="M1222 1065.2v49.8c0 48.5 0 48.5 2.3 53 4.8 9.3 10 10.1 62.7 9.7 38.8-.4 39.6-.4 46-2.8 7.3-2.7 9.1-5.1 8.3-11.2-.4-3.1-1.3-4.3-4.4-6.4l-3.9-2.6v-12.8c0-7 .5-14 1-15.4 1.4-3.8-.9-2.8-3.3 1.3-1.9 3.2-7.7 16.6-10.3 23.7-3 8-.5 7.5-39.5 7.4-42.4-.2-38.4 1.6-38.3-17.5 0-15.5 0-15.5 8.7-17.3 5.7-1.2 41.3-15 45.2-17.5 2.9-1.8 15.4-6.4 19.5-7.1 7.4-1.3 7.9-2.8 2.9-8.2-8.5-9.2-12.6-12.5-14.8-11.8-1.2.3-7 4.5-13.1 9.3-14.6 11.5-24.2 17.9-40.2 26.6l-8.7 4.7.6-21.7c.5-20.1.7-22 2.6-24.6l2.1-2.8-2-2.1c-1.5-1.5-4.6-2.4-12-3.4-12.2-1.8-11.4-1.7-11.4-.3m211 73.6c0 20.3.3 39 .6 41.7l.7 4.7 3.6-.6c9.4-1.3 10.2-1.8 12.9-6.2l2.6-4.3 8-.5c4.5-.4 19.4-.5 33.1-.4l25 .3.3 4.8c.4 5.9 1.3 6.4 10.3 4.8 11-2 10.9-1.7 10.9-35.3 0-26.6.1-27.6 2.1-30.2 2.9-3.7 1.4-6.5-6.5-11.6-7.4-4.8-9-4.9-13.4-.8l-3.3 3.3-35 .3-35 .3-5.2-3c-2.9-1.6-6.7-3.2-8.4-3.6l-3.3-.7zm67.3-24.1 18.7.6v21.7h-66v-23h14.3c7.8 0 22.6.3 33 .7m18.5 39.8-.3 11.5-32.7.5-32.8.6v-11.9c0-6.5.2-12.1.4-12.3s15.1-.3 33-.1l32.7.3zm-487.2 72.3c-.2.1-.1 1.4.2 2.7.5 2.6 1.9 3.2 8.2 3.7 4.7.4 4.8 1.4 4.6 47.8l-.1 37.5-5.7.5c-6.6.6-8.8 2.1-6.8 4.5 1.2 1.4 47 2.5 47 1.1 0-4.2-2.1-5.6-8.5-5.6h-6.5l-.2-13c-.1-7.2-.2-14.5-.2-16.3l-.1-3.2 11-.8c17.8-1.2 25.6-4.8 33.3-15.1 9.9-13.3 4.1-32.8-12-40.2-6.2-2.8-6.7-2.8-25.8-3.1-10.7-.2-23.7-.4-28.8-.6-5.2-.1-9.5-.1-9.6.1m47.7 7.9c10.9 3 15.6 10.4 14.3 22.5-1.5 14.3-10 21.8-24.8 21.8h-4.8v-22.3c0-12.3.3-22.7.7-23 1.2-1.2 8.6-.7 14.6 1m236-7c-.3 1-1.6 4.3-2.8 7.3-1.3 3-3.7 9.8-5.4 15-4.9 15.3-12 36.3-13 38.5-1.5 3.4-8 24.8-8.3 27.5-.3 2.1-1 2.5-6.5 3.5-7 1.3-7.8 1.7-7 4 .6 1.4 32.7 2.5 32.7 1 0-3.7-2.6-5.5-8.1-5.5-6.8 0-7.4-.6-4.8-4.9 1.1-1.8 2.4-5.6 3-8.4.7-2.9 2-6.9 3.1-9.1l2-3.8 14.9.4c8.2.3 15.2.7 15.5 1 .9.9 8.4 21.7 8.4 23.2 0 1.6-3.1 2.6-8.1 2.6-3.7 0-6 2.3-4.2 4.1.5.5 9.6.9 20.3.9 25 .1 24 .1 24-.8 0-2-4.3-5.2-7-5.2-1.6 0-3.2-.6-3.7-1.3-1.2-1.9-7.2-16.8-8.8-21.7-3.4-11-19.2-56.2-22.6-64.8l-2.1-5.2h-5.4c-4.3 0-5.6.4-6.1 1.7m3 24.3c2 7.7 8.4 29.2 9.6 32.2.8 2.2.7 2.7-1.2 3.2-3.4.9-24.5.7-25.1-.2-.4-.7 3.1-12 13-41.1.7-2.3 2.1-.1 3.7 5.9m-111.1-13.3c-1.1 3.2-2.6 7.7-3.2 10-1.3 5.1-3.2 6.3-9.9 6.3-5 0-5.1.1-5.1 3 0 3 0 3 5.9 3h5.9l.3 27.9c.4 31.4.4 31.3 8.4 35.5 8.7 4.5 24.7 1 29.3-6.5 2.1-3.3-2.5-4.6-6.9-2-3.8 2.3-9.8 2.8-11.7.9-1.7-1.7-1.7-53.9 0-55.6.7-.7 4.3-1.2 9-1.2 8.1 0 9.2-.7 6.6-4.3-1-1.2-3.2-1.7-8.8-1.9l-7.5-.3V1233h-10.2zm-63.2 14.9c-19.7 6.3-29.5 27.8-22.6 49.7 1.4 4.6 3.8 9.7 5.5 11.7 8.1 9.8 28.9 15 39.8 10 10.9-4.9 18.9-12.8 16-15.7-1.4-1.4-2.1-1.1-7.5 2.6-16.6 11.7-36.1 2.1-36.6-18.1l-.1-4.9 17.5-.1c9.6-.1 19.9-.3 22.9-.6l5.4-.4-.7-8.7c-1.1-13.2-6.4-21.6-16.2-25.7-4.3-1.8-17.5-1.7-23.4.2m15.7 6.9c4.2 3.6 6.3 8.8 6.3 15.7 0 6-.6 6.3-15 6.6l-13 .4v-4.3c0-7.2 1.9-11.6 7.6-16.9 6.3-6 8.6-6.2 14.1-1.5m230.3-5.4c-4.7 1.7-10.2 3.6-12.2 4.2-5.5 1.6-6.5 6.6-1.1 5.2 1.6-.4 3.4 0 4.9 1l2.4 1.5v51.6l-3.7 1c-2.8.7-3.9 1.5-4.1 3.1l-.3 2.3h39.2l-.3-2.3c-.2-1.6-1.1-2.3-3.3-2.5-1.6-.1-4.5-.5-6.4-.8l-3.3-.5.6-20.4c.7-22.5 1.1-24.3 6.4-29.8 4.4-4.5 5-4.5 8.7-.7 7.8 8.2 22.3-1.7 15.9-10.8-4.7-6.7-15.6-6.8-22.2-.1-2.2 2.1-4.7 3.9-5.5 3.9-1 0-1.8 1.3-2.3 3.5-1.1 5.9-2.3 3.9-2.6-4.2-.2-4.2-.7-7.8-1.3-8-.5-.1-4.8 1.1-9.5 2.8m74.5-2.2c-16.3 4.2-28.1 23.1-25.5 41 2.3 16 6.9 23.5 17.9 28.9 19.9 9.8 45.8.3 51.6-19.1 2.7-8.7 2.1-24.9-1-31.3-3.2-6.5-11-14.5-17.2-17.5-5.1-2.6-19.4-3.7-25.8-2m13.3 6c7.6 3.9 11.5 10.8 13 23.1 2.7 22.1-4.6 38.3-17.3 38.3-11.1 0-17.5-14.4-16-35.8 1-13.5 2-16.3 8-22.3 5.8-5.8 6.9-6.1 12.3-3.3m58.1-4.5c-4.3 1.2-8.8 3-10.3 3.9-1.4.9-3.4 1.7-4.6 1.7-1.5 0-2 .7-2 2.5 0 2.2.4 2.5 3.9 2.5 2.2 0 4.2.4 4.5.9.3.4.6 12.5.6 26.7l.1 25.9-3.8.9c-3.7.9-6.6 3.3-5.7 4.8.7 1.1 36.2 1 36.8-.1 1.2-1.9-.6-3.8-4.7-4.7l-4.2-.9-.3-23.4-.2-23.4 4.4-4.3c4.8-4.6 9.2-6.1 14.4-4.9 7.1 1.5 8.1 5.5 8.4 33.2.3 25.2.5 24.3-5.2 24.3-3 0-5.6 2.3-4.5 4 .4.6 7.2 1 18.6 1h17.9v-2.4c0-2.4-2.1-3.6-6.7-3.6h-2.3v-47.6l4.3-4.1c6.8-6.7 14.7-6.5 19.4.6 3.4 5 3.6 50.5.3 51.6-1.1.3-2.4.4-2.8.1-1.6-.9-4.4 1.8-3.7 3.6 1.1 2.7 33.3 3.1 34.7.5 1.3-2.5-.9-5-3.8-4.3-5.6 1.4-5.6 1.6-5.3-26.8.3-28.7.3-28.9-6-35.2-7.7-7.8-20.3-7.1-33.5 1.9-5.2 3.6-7.2 3.4-9.7-.7-1.1-1.9-3.4-4-5.1-4.7-7.3-3-24.7 0-29.3 5.1-2.7 3-4.3 2.4-5-2-.9-5.2-.7-5.2-9.6-2.6m135.6-.5c-11.1 3.2-16.5 8.3-16.5 15.4 0 5.5 1.3 6.7 7 6.7 6 0 7.4-1.6 9.2-10.5l1.4-7 3.9-.6c9.3-1.5 14.9 3.2 16 13.6 1 8.8 1.1 8.7-10.6 12-18.6 5.1-26.1 10.1-29.4 19.6-3.8 10.6.5 18.3 12.3 21.9 10.4 3.2 15.5 2.3 23.8-4.5l4.2-3.5 2.9 3.6c2.8 3.5 5 4.4 15 6.1 3.9.6 12.1-6.1 11-9.1-.5-1.4-1.1-1.5-2.7-.6-1.2.6-3.5 1-5.3.8l-3.2-.3-.5-25.5c-.5-27.5-1-29.8-6.5-35-5-4.7-21-6.3-32-3.1m20.9 32.8c1.4 4.3.2 25.5-1.4 26-.8.2-3.2 1.3-5.2 2.3-7.6 4-14.9 2-16.7-4.7-2.3-8.4 2.7-16.1 14.2-21.7 8.5-4.1 8.4-4.1 9.1-1.9m-691.7 81c-.4.3-.7 8-.6 17.1v16.4l3.1-.6c1.7-.3 7-.6 11.9-.6 8.8 0 8.9 0 8.9-2.5s-3.7-4-8.6-3.5c-1.1.1-3.4.2-5.1.1l-3.3-.1v-11.6c0-6.3-.5-12.4-1-13.5-1-1.9-4-2.6-5.3-1.2m36.2 2c-11.8 6-12.3 22.1-1 28.7 4 2.3 14.2 2.6 19 .6 6.6-2.7 11.2-13.4 8.6-19.7-4.7-11.3-15.5-15.2-26.6-9.6m14.4 4.6c4.5 1.9 6 4.2 6 9 0 12.7-16.1 16.8-21.9 5.6-4.9-9.6 5.2-19 15.9-14.6m55.8-5.9c-.7.8-1 6.7-1 16.4l.1 15.2h10.8c6 0 11.5.3 12.3.6 1.3.5 3.3-3.4 2.2-4.4-.2-.2-4.6-.7-9.7-1l-9.3-.7v-9l8.3.4 8.2.3v-6.2h-8.4c-8.8 0-10-.6-8.6-4.5.6-1.7 1.8-2.1 9.6-2.5 8.3-.5 8.9-.7 9.2-2.8.3-1.7-.2-2.2-2-2.3-1.3 0-6.4-.3-11.4-.5-6.8-.3-9.5 0-10.3 1m68.9-.3c-8 3.2-9.7 11-3.3 15.4 2.1 1.4 4.8 2.5 6 2.5 6.5 0 12.8 7.1 6.8 7.7-5.7.5-8.3.5-11.7-.2-3.1-.6-3.9-.4-4.4.9-1.2 3.2 1.8 4.6 10.7 5.3 10.7.7 12.9-.6 13.7-8.6.6-6.1-.5-7.3-8.3-9.2-7.2-1.7-10.6-3.6-9.8-5.5 1.1-3 5.8-3.6 14-1.9 2.2.5 4.5-3.6 3-5.2-1.9-1.9-12.9-2.7-16.7-1.2m75.3-.3c-6.5.2-10.4.7-11 1.5-.4.7-.7 7.8-.5 15.9l.3 14.6 12 .1 12 .2-.3-2.8c-.2-2.3-.8-2.8-3.3-2.9-15.3-.4-14.5-.3-14.5-2.7 0-5.4 1.1-6.8 4.9-6.7 10.4.5 12.1.1 12.1-2.5 0-2.4-.2-2.4-8.2-2.7l-8.3-.3-.3-3.2-.3-3.2 8.8-.3c8.6-.3 8.8-.4 8.8-2.7 0-2.9.7-2.7-12.2-2.3m24-.1c-2.3.9-1.8 31.9.5 32.5 3.8 1 4.2 0 4.2-10.5l.1-10.2 6.2 7c17.8 20.2 17.7 20.2 17.7-3.2v-16.4l-3.2.3-3.3.3-.3 10.2c-.1 5.7-.5 10.3-.8 10.3-.7 0-5.2-5.2-11.8-13.8-5.5-6.9-6.6-7.7-9.3-6.5m36.7 1.4c-1.3 2.3.1 3.5 4.2 3.5 5 0 4.9-.5 5 13.8.1 13.1.8 15.1 4.5 14.4 2.2-.4 3.1-5.9 3.2-19l.1-8.7 4.8-.3c4-.3 4.7-.6 5-2.6.3-2.1 0-2.2-7.7-2.3-4.5-.1-10.4-.2-13.2-.3-3.7-.1-5.3.3-5.9 1.5m34.7-1.5c-.4.4-.7 8.1-.7 17.2v16.4l3.1-.6c1.7-.3 7.1-.6 12-.6 7.9 0 8.9-.2 9.9-2.1 1.6-2.8 1.7-2.7-9.3-3.5l-9.7-.7v-7.7h8c6.9 0 8.1-.3 9-2 1.8-3.4.3-4.2-7.4-3.9-9.8.3-9.6.3-9.6-3.6v-3.4l8.8-.3c8.2-.3 8.7-.4 9-2.6.3-2.1.1-2.2-9-2.2-5.1 0-10.2-.3-11.3-.6s-2.4-.2-2.8.2m33.5 16.9c.3 14.5.5 16.9 1.8 16.6.8-.2 3.3-.4 5.5-.5 20.8-1.3 26.4-5 26.5-17.5 0-10.3-6-14.3-22.3-15.1l-11.7-.5zm21.8-9.5c12.3 6.3 5 20.7-10.1 19.8l-5.4-.3-.3-9.4c-.1-5.2-.1-10 .2-10.8.8-2.1 11-1.7 15.6.7m36-6.8c-.4 10.3.3 32.5 1.1 33.3 2.9 2.9 4.4-1 4.9-13.1l.5-11.8 7.7 10.5c4.2 5.7 8.3 11.3 9.1 12.3.9 1.4 2 1.7 3.8 1.3l2.5-.6.3-16c.2-16.5-.1-17.8-3.9-16.6-1.7.5-2 1.7-2.2 11.2l-.3 10.7-9.3-11.2c-7.2-8.8-9.8-11.2-11.7-11.2-1.4 0-2.5.6-2.5 1.2m44.1 13.4c-9 18.6-9.4 19.9-5.5 19 1.6-.4 4.2-2.3 5.7-4.2 2.7-3.3 3.1-3.4 9.8-3.4 8.4 0 10.4.9 11.9 5.5 1.3 3.9 2.9 4.5 4.7 1.7.9-1.6-.1-4.4-6.5-17.3-10.6-21.1-10.5-21.1-20.1-1.3m13.8-.1c1.2 3.2 2.1 6.1 2.1 6.2 0 .2-2.7.3-6 .3s-6-.2-6-.4 1.4-3.5 3-7.2c3.4-7.6 3.9-7.5 6.9 1.1m15.1-13.5c-2.8 1.8.2 4.4 5.6 5l4.9.5-.4 11.6c-.3 11.9.5 15.9 3.5 15.9 2.4 0 3.6-5 3.4-15.5-.1-5.5-.1-10.6-.1-11.3.1-.7 1.7-1.2 4.5-1.2 4 0 7.3-2.7 5.4-4.5-.9-.9-25.5-1.4-26.8-.5m33.3.6c-.3.8-.4 6.1-.1 11.8.7 15.5 3.2 18.5 16.9 20.1 10.4 1.2 13.9-4.3 13.9-21.9V1367h-6v10.9c0 13.3-2.1 17.8-8.1 17.3-8.1-.6-9.9-3.9-9.9-19v-9.2h-3c-1.9 0-3.3.6-3.7 1.6m41.4-.9c-1.2 1.1-.8 33.3.4 33.3 2.9 0 4.7-2.2 5.3-6.5 1.2-7.8 8.2-6.2 13.2 3 1.3 2.4 2.6 3.5 4.1 3.5 3.4 0 3.6-1.6.8-5.7-3.1-4.7-3.1-4.9.5-8.3 6.4-6 3-16.4-6.1-19-3.8-1.1-17.2-1.4-18.2-.3m19.6 7.5c4.6 5.3 1.3 9-7.5 8.6l-6.3-.3-.3-5.7-.3-5.6 6.3.5c4.6.4 6.8 1 8.1 2.5m25.8-4c-1.8 4.1-5.6 12-9.9 20.3-3 5.8-3.1 7.9-.5 8.3 1.6.2 2.8-.6 4.5-3.2l2.3-3.6h16.5l2.5 4c2.3 3.7 5.6 5.2 6.9 3.2.5-.8-13.5-29.8-15.4-32-2.3-2.5-5-1.3-6.9 3m7.3 10.6 2.4 7.1-5.3-.2c-7.1-.3-7.1-.4-3.5-8.2 3.5-7.9 3.3-7.9 6.4 1.3m23.3-14.1c-.7 1.2-1.4 31-.7 31.6.7.7 20.8 1.2 21.5.5 1.8-1.8-1.6-5.9-4.7-5.7-1.8.2-5 .2-7 .1l-3.8-.2v-13c0-7.2-.4-13-.9-13s-1.6-.3-2.4-.6-1.7-.2-2 .3m29.8.5c-.2.7-.6 8.2-.8 16.5l-.5 15.3h24l-.7-2.7c-.9-3.8-.5-3.6-8.8-3.4l-7.4.2-.6-8.3c-.4-4.6-.7-10.7-.7-13.6 0-4.6-.2-5.2-2-5.2-1.1 0-2.2.6-2.5 1.2m21.5 0c0 1.9 3.2 6.4 6.2 8.7 5 4 7.8 10.3 7.8 17.5 0 6.8.7 8.1 4 7.1 1.7-.5 2-1.5 2-5.8 0-7 2.4-14.5 5.9-18.2 6.4-6.9 7.3-9.5 3.4-9.5-2.9 0-5.9 3-9.8 9.7-2.6 4.5-3.3 4.2-8.4-2.8-5.3-7.2-11.1-10.7-11.1-6.7m-646.7 1c.3.7 2.8 6.3 5.4 12.3 7.1 16.2 8.8 18.7 12.6 18.3 3.2-.3 5.6-4.7 14.8-27.3.7-1.7 1.4-3.3 1.7-3.8.7-1.2-5.5-.8-6.6.5-.5.7-2.5 5.1-4.4 9.8-6.1 15.4-6.3 15.4-12.7-.5l-4.4-10.5h-3.4c-2.4 0-3.3.4-3 1.2m142.7.6c-4.2 2.2-8.9 10.2-9 15-.1 11.5 14.5 19 27.4 14.1 9.5-3.7 6.8-7.9-3.7-5.9-10.3 2.1-14.2-.2-15.4-8.9-1.1-8.1 5-12 15.2-9.9 8.9 1.7 11.5-.7 4.5-4.2-5.1-2.6-14.2-2.7-19-.2m-72.7 24.7c-.3.9.2 2.4 1.2 3.5 1.3 1.5 1.5 2.8 1 6-.7 3.9-.6 4.1 1.6 3.8 1.8-.2 2.5-1.3 3.4-5.8.7-3 1.5-6.3 2-7.3.6-1.5.1-1.7-3.9-1.7-3.3 0-4.8.5-5.3 1.5m610.7 1.8c0 5.4 2.4 5.8 5.5 1 1.9-2.9.9-4.3-3.2-4.3-1.9 0-2.3.5-2.3 3.3"/></svg>