<svg xmlns="http://www.w3.org/2000/svg" version="1.0" viewBox="0 0 2144 1984"><path d="M1069.9 448.2c-7.4 5.3-39.3 38.6-57.4 59.8-4.4 5.1-11.4 13.2-15.6 17.9-15.9 18.1-39.8 47.3-52.2 64.1-7.2 9.6-14.2 19.1-15.7 21-8.4 11-33.1 49.1-43.3 66.6-14.8 25.6-17.3 44.1-7.4 54.6 1.4 1.6 3.1 2.8 3.6 2.8 2.3 0 11.4-14.9 26.3-43 4.9-9.2 13.3-23.4 18.1-30.5 2.2-3.3 8.4-12.6 13.8-20.6 10.8-16.2 39.3-54.5 50.9-68.4 4.1-5 9.2-11.1 11.2-13.5 10.6-12.8 19.6-23.1 32.3-37 33.7-37.1 39.8-43.5 41-43.8 1.8-.4 63 60.9 87.1 87.4 18 19.7 34.2 38.7 46.4 54.4 50.9 65.2 58 75.4 93.8 134.2 9.5 15.6 16.1 28.8 30.9 62.3 22.7 51.3 34.1 109.2 29.9 153-8.6 88.6-46.2 150.2-127.4 208.1-10.8 7.7-16.4 11.4-17.2 11.4-.4 0-1-5.7-1.3-12.8-.3-7-1.1-14.3-1.7-16.2-2.1-6.6-2.5-37.7-.5-44.5 5-17.3 11.9-22.8 33-26.3 22.8-3.7 31.9-6.3 39.6-11.3 16.1-10.3 28.3-34.4 26.6-52.6-.9-8.8-3.8-13.6-15.7-25.3-8.4-8.2-10.3-10.7-14-18.5-10.9-23-32.1-42-53.5-48-10.7-3.1-11-3.8-11-32.5v-20.5l-5 .3c-17.3.9-35.6 11.2-58.6 33-4.2 4-7.9 7-8.2 6.5-.2-.4-1.7-6.7-3.3-13.8-5.4-24.6-3.7-46.7 4.3-55.6 8.3-9.2 14.9-10.8 45.9-11.2l24.9-.4 9.5-3.3c29.1-10 47.4-28.3 58-58 5.8-16 2.4-43.1-6.4-51.5-4.4-4.2-5.4-4.6-24.1-8.5-11.3-2.4-25.8-6.1-35.5-9.2-7.3-2.3-14.7-9-19.7-17.7-19.9-34.5-64-55.7-111.7-53.7-53.5 2.4-87.2 24.1-107.3 69-3 6.5-7.8 17.7-10.7 25-10.3 25.1-35.3 73.4-45.2 87.5-1.5 2.1-17.6-12.4-30.7-27.7-19.8-23.3-29.3-39.9-38.1-67.2-2.6-8-5.6-16.3-6.6-18.5s-2.4-5.3-3-7l-1.1-2.9-2.5 2.9c-6.9 8.4-16.5 21.9-20.6 29-4.9 8.7-18.1 35.5-19.3 39.4-.4 1.3-2.4 6-4.5 10.5-10 21.8-22.7 62.9-27 87.5-8.2 47.8-8.4 49.5-8.4 81.1-.1 31.7-.1 30.8 6.5 63.4 16.3 79.4 65 147.3 137.1 190.8 70.6 42.5 149.2 57.3 229.8 43.2 45.9-8.1 90.9-27.1 123.5-52.3 56.2-43.4 86-81.5 108.8-139.1 25.1-63.3 24.5-139.2-1.8-214-20.4-58.2-51.2-114.6-96.1-176.1-6.9-9.5-13.6-18.9-14.9-20.8-5.1-8.2-32.2-41.8-49.5-61.4-5.8-6.6-12.1-13.8-14-16.1-16.2-19.2-99.8-104.7-112.3-114.7-5.9-4.7-7.2-4.8-12.8-.7m46.1 216.3c26.7 4 47.7 16.9 62.1 38.1 14.8 21.7 27.4 29.3 64.2 38.8 7.3 1.9 15.3 3.7 17.8 4.1 4.4.7 4.7.9 5.3 4.3 4 24.3-12.8 49.7-39.9 60.4l-8 3.2-25 .3c-27.5.4-38.9 2.1-46.1 6.9-1.9 1.3-3.8 2.4-4.2 2.4-4.1 0-15.1 14.2-20.3 26.1-9.7 22.4-7.8 46.1 7.6 96 .3.9-3.6 7.8-9.3 16.5-14 21.3-19.4 30.5-27.2 46.6-3.9 7.9-8.6 17.4-10.7 21.3l-3.7 7-1.3-11.3c-1.5-13.8-3.7-23.2-9.8-42.2-7.5-23.2-15.6-37.6-36.6-65.2-10.3-13.5-54.3-54.8-81.4-76.4l-3.9-3.1 4.9-8.4c8.7-15.2 15.7-28.3 20.2-37.7 2.5-5 4.8-9.2 5.1-9.2.4 0 2.6 4.7 5 10.4 6.5 15.5 15.6 25.3 29.7 32.1 44.6 21.4 81.4-3.8 86.6-59.3 2.3-24.8-3.9-73.8-10-79.4-5.8-5.2-13.2-4.9-18.9.8l-3.5 3.5.6 8.2c.4 4.5 1.3 10.7 2.1 13.7 8.4 31 6.4 64.7-4.7 82.3-6.9 11.1-26 15-40.5 8.3-8.4-3.9-17.5-13.5-19.7-20.8-7.1-23.7-3.2-51.8 10.7-77.6 17.6-32.7 55.7-47.8 102.8-40.7m-274 88.9c0 2.1 10.9 22.9 16.1 30.8 17.4 26.3 35.1 44.3 81.9 83.3 53.1 44.2 72 64 89.9 94.3 17.1 29.1 22.6 51.1 22.6 91.7 0 27.5-.5 31.6-6.6 56-3.4 13.5-19.1 47.5-22.8 49.5-3.1 1.6-3.6 1.4-12.1-6.3-27.4-24.4-31.5-44.7-19.1-95.9 6.4-26.5 7.4-43.6 3.3-58.1-2.7-9.5-3.8-10-3.4-1.7.6 10.8-2.9 25.6-11.3 47.5-10.7 28-12.6 34.4-13.8 47.7-.6 6.5-1.3 11.8-1.6 11.8-1.6-.1-28.8-43.2-34.5-54.5-16.1-32.3-17.3-49.5-6.1-88.6 6.6-22.8 7.7-32.5 5.3-45.8l-1.1-6.6-1.3 6.5c-2.2 11.7-4.6 18.3-12.9 35.5-7.3 15.1-10.6 23.6-13.2 34.3-.8 3.2-.9 3.1-4.5-5.5-2.1-4.9-6.2-14.4-9.3-21.2-13.3-29.6-28.9-72.5-35-96.1l-3.4-13.5.5 13c1 28.1 13.2 85.3 24.5 114.9 1 2.8 1.9 5.3 1.9 5.4 0 .2-1.7-.6-3.7-1.9-2.1-1.2-8.5-4.9-14.3-8.2-14.5-8.3-23.7-14.6-31.1-21.4-7.1-6.6-7.1-5.5-.1 4.9 7.3 10.7 12.1 15.8 26.6 28 27.6 23.2 31.9 28.9 52 68.4 10.9 21.3 15.1 29 18 32.9 1.4 1.8 2.6 3.6 2.6 3.8s-4.6-1.1-10.2-3c-5.7-1.9-13.9-4.3-18.3-5.4-22.7-5.8-44.9-14.2-53.4-20.2-7.8-5.6-7.9-5.2-.6 2.2 12.4 12.7 27.2 21.5 55.4 33.1 18.7 7.6 22 9.3 35.1 18.1 12.1 8.1 23.8 18.6 37.7 34.1 31.7 35.2 67.2 61.6 100.6 74.8 3.2 1.2 5.6 2.4 5.4 2.6-.6.6-33.1-2.5-42.2-4.1-97-16.8-180.6-76.4-218.5-155.7-27.2-57-32.6-120.8-16.9-199.8 5.5-27.7 19.2-67.5 34.5-100.2 5.5-11.9 7.4-14.8 7.4-11.4m352.4 166.8c.3 1.8 1 6.5 1.6 10.5 2.2 13.9 7.1 19 25 25.7 11.6 4.4 25.1 12.7 30.7 18.7 1.1 1.3 5.1 8.4 8.8 15.6 6.2 12.5 7.2 13.9 16.5 22.9 11.1 10.9 12.5 13.3 11.7 20.4-2 17.2-13.6 25.4-41.3 29.5-18.9 2.8-21.5 3.5-29.6 7.7-12.2 6.4-22.3 20.6-26.5 37.3-2.3 9.1-2.3 39.2 0 59 .9 7.7 1.7 18.7 1.9 24.5l.3 10.4-9 2.8c-11.4 3.6-29.6 6.8-38.8 6.8-25.5 0-66.6-12.9-90.7-28.5-10.8-6.9-11.4-3.3 7.1-42 .5-1.1 6-14.6 12.3-30 22.1-54.6 46.5-105.2 63.7-132.5 14.2-22.5 33.6-45.6 47.4-56.5 8.2-6.5 8.3-6.5 8.9-2.3m-284.7 398.6c1 1.6 3.7 5.7 6 9 3.9 5.9 5.4 10.2 6.9 20.2.5 3.3 1.6 5.4 4.1 7.7l3.4 3.3-6.3.1c-8.7.2-70.2-.3-70.5-.5-.2-.2-.7-2.5-1.2-5.2-2.4-12.5-4.8-13-8.6-1.9-4.2 12-7.5 17.3-15.5 24.8-14.7 14-17.2 19.2-12.8 27.7 2.9 5.6 7.3 8 14.7 8 13.2 0 22.2-13.5 24-36l.6-7.5 78.8.1c43.3.1 79 .3 79.2.6.4.3-1.7 11.4-5.1 26.5-2.1 9.3-1.7 10.4 2.9 7.9 9.3-5.4 13-8.1 25.8-19.1 7.7-6.6 15.3-13 17-14.1l2.9-2.2-7.8-6.9c-12.3-11-18.8-16.3-20-16.3-.6 0-4.3 3.2-8.4 7.2l-7.3 7.2-35.8.1c-19.6 0-34-.4-32-.8 12.3-2.6 15.4-19.7 5.2-29.4-6.5-6.1-27.2-13.2-38.7-13.3h-3.4zm362.3-1.1c-6.2 2.7-42.9 12.3-53 13.8-2.5.4-7 1.3-10 2-10.4 2.6-47.7 8.6-75 12-15.1 1.9-23.9 3.5-24.5 4.5-1.9 3 2.8 3.3 46.1 2.8l43.5-.6-.3 12.2-.3 12.1-52.5.5c-57.2.5-55.8.4-51.2 6 1.8 2.3 1.9 2.3 25.6 2.1 13-.1 29 .1 35.6.5l11.9.7-1.5 2.8c-9 17.6-32.6 40.2-61.5 59.2-11.3 7.5-16.9 12.7-13.4 12.7 3.8 0 16.1-4.3 28.4-10 7.3-3.4 14.9-6.4 16.8-6.7l3.5-.6-.3 57-.4 57.1 4.4.6c12.8 1.8 23-2.5 24.7-10.2.3-1.5.7-3.3 1-4 .3-1 9.9-1.2 45.6-1l45.3.3.3 6.3c.3 7.2 1.5 8.2 10 8.2 7.2 0 12.3-1.9 16.4-6l3.8-3.8v-41.1c0-45.1-.4-41.8 6-46.3 2.3-1.6 2.4-1.8.7-2.9-1-.6-3.3-2.3-5-3.8-4.8-4.1-15.7-12.2-17.3-12.8-1.4-.5-12.8 7.8-14.7 10.8-1.1 1.8-3 1.9-45.2 1.9-48.3 0-43.8.5-61.9-6.9-5.5-2.3-10.8-4.1-11.9-4.1-3 0-.3-2.6 5.7-5.7 16.8-8.4 40.5-27.1 49.3-38.9l2.2-2.9v25.2l.1 25.3h7.8c8.4 0 19-3.9 21-7.7.6-1 1.2-12.9 1.4-26.5.1-13.5.6-24.4 1-24.2.4.3 2.8 3.3 5.4 6.7 19.8 26.1 42.2 44.6 67.6 55.7 8.5 3.8 13.2 5.9 15 6.8.4.2 2.7-4 5.2-9.2 5-10.4 9.5-15.7 15.1-17.7 2.7-1 5.1-3.9 3.1-3.9-6.3 0-39.7-8.6-51.6-13.3-17.3-6.8-44-22.5-44-25.8 0-1.6 6.8-1.9 45.7-1.7 39.1.3 41.2.2 43.2-1.6 2.8-2.6 2.8-2.7-2.5-6-2.6-1.6-5.4-3.7-6.3-4.6-4.8-4.9-16.4-14.1-17.5-13.8-.6.2-4.6 4.1-8.7 8.8l-7.6 8.5h-62.8v-26l5.5-.7c3-.4 10.9-1.2 17.5-1.8 16.4-1.4 26.8-3 28.2-4.2.7-.6 2.7-.7 4.5-.3 15.5 3.3 19.5 1.5 13-5.8-7.4-8.3-20.9-21.7-21.9-21.6-.4 0-2.4.8-4.3 1.6m-11.2 160-.3 14.8-45.7.3-45.8.2v-30h92.1zm0 40-.3 15.8-45.7.3-45.8.2v-32h92.1z"/><path d="M873 1460.7c.5 76 .4 73.9 5.8 79.6 8.5 9 15.7 9.9 79.6 9.8 65-.1 74.5-1.3 81.9-10.1 4.7-5.5 2.4-14.6-4.8-19.3-5.3-3.4-5.7-5.5-5.3-25 .3-18.2-.7-23.9-3.2-17.1-.5 1.6-1.5 3.7-2 4.7-.6 1-2.8 6.6-4.9 12.5-5.7 15.9-9.4 22-15 24.5-4.4 2-6.4 2-48.4 1.9-44.7-.1-48.7-.4-52-4-1.5-1.6-2.9-37.4-1.5-38.7.2-.3 5.3-1.9 11.3-3.6s16-5.1 22.4-7.6c6.4-2.4 14.5-5.6 18.1-7 6.7-2.6 18.1-7.5 28.5-12.3 3.3-1.5 9.2-4 13-5.5 3.9-1.6 8-3.5 9.2-4.2 1.2-.8 3.2-1.4 4.5-1.3 4.1.4 6 0 5.6-1-.7-2.3-25.2-26-26.8-26-1 0-3.7 1.7-6.1 3.8-15.4 13.1-33.8 27.1-48.2 36.5-10.7 7-29.7 17.7-31.4 17.7-1.4 0 0-64.3 1.4-64.7 2.5-.9 5.6-4 5-5-1.1-1.8-29.7-9.4-35.2-9.3-2 0-2 .5-1.5 70.7m143.1 143.5c-.5 1.3-2.5 7.5-4.4 13.8s-6.7 20.6-10.6 31.7-7.1 20.6-7.1 21.1c0 .4-1.7 5.1-3.8 10.3l-3.8 9.4-4.5.5c-4.3.5-4.4.6-4.7 4.2l-.3 3.8h31.2l-.7-2.3c-1-3.5-2.2-4.5-6.2-5.2-6.8-1.1-6.9-1.2-3.2-12.9l3.3-10.6h31.3l2.7 8.7c1.5 4.9 3 10.3 3.3 12l.7 3.3h-11.4l.3 3.2.3 3.3 20.8.3c22.5.3 22.8.2 20.8-5.1-.9-2.4-1.6-2.7-5.6-2.7-2.5 0-4.5-.1-4.5-.3s-1.6-4.8-3.6-10.3c-2-5.4-4.2-11.7-4.9-13.9-.8-2.2-3.9-11-7-19.5s-7.4-21.1-9.6-28c-5.9-18.5-4.9-17-11.9-17-5.3 0-6.1.3-6.9 2.2m7.7 35.6c3.4 10.8 6.2 20.1 6.2 20.7 0 .9-26 .9-26 0 0-.2.4-1.4.9-2.7 2.5-6.2 11.1-33.8 11.1-35.7 0-5.1 1.9-.8 7.8 17.7m-281.6-34.1c.3 2.7.6 2.8 6.5 3.1l6.2.3.1 40.8c.1 45.8.7 42.1-7.6 42.1-4.3 0-4.4 0-4.4 3.4v3.4l22.6.1 22.5.2-.3-3.3c-.3-3.3-.4-3.3-5.8-3.6-7.8-.4-8-.9-8-17.9V1660h5.4c7.6 0 22.1-2.7 26.4-4.9 14.9-7.6 19.3-28.3 8.7-40.9-8.1-9.6-14.9-11.2-47.3-11.2h-25.3zm50.1 6.2c7.1 3.5 9.9 8.8 10.1 19.4.1 10.2-1.6 13.4-9.7 18.5-4.8 2.9-7.1 3.7-12.3 4l-6.4.4v-45.4l6.8.4c4.3.2 8.4 1.2 11.5 2.7m121.8-1.8c-1.1 1.2-3.3 5.8-4.9 10.3-2.9 8-3 8.1-7.1 9-5.8 1.2-6.2 6.3-.6 6.8l3.5.3.5 25.2c.6 26.7.8 28.1 5 33.1 6 7.1 23.1 7.1 29.6-.1 3.4-3.7 3.6-5.2.9-6.7-1.6-.8-2.6-.7-4.2.5-3.2 2.2-8.1 1.9-10.4-.6-1.7-1.9-1.9-4.2-2.2-27l-.3-24.9h8.5c9.1 0 10-.5 9-4.5-.6-2.4-.9-2.5-9-2.5H924v-9.3c0-5.9-.4-9.7-1.2-10.5-1.9-1.9-6.5-1.4-8.7.9m-63.3 18.8c-20 7.9-30.2 31.6-21.5 50.4 6.3 13.7 16.6 20.2 32.2 20.2 13 0 17.4-1.9 23.8-10.3 6.1-8.1 3.8-10.9-3.8-4.7-14.3 11.8-36.5.8-36.5-18v-3.5h21.5c25 0 24.1.4 23.2-10.6-1.3-18.3-21.3-30.3-38.9-23.5m14.8 6c4 2.4 6.4 7.7 6.4 13.9 0 7-.9 7.5-15.2 8l-12.1.5.6-4.6c1.9-14 12-22.9 20.3-17.8m248.6-5.8c-3 1.5-5.5 3.9-7.9 7.5-4.6 6.9-5.1 6.8-5-1.4.2-6 0-6.7-1.8-7-2.4-.3-23.6 6.1-23.6 7.1.1.4.1 1.6.1 2.6 0 1.6.9 2.1 4.3 2.6l4.2.7v50.3l-4.2.3c-4.2.3-4.3.4-4.3 3.8v3.4h38.1l-.3-3.3c-.3-3.1-.4-3.2-5.5-3.5-6.7-.4-6.7-.4-6.1-21 .4-16.8 2.3-23.9 8-29.9 2.8-3 3.4-2.9 7.9 1.2 6.9 6.2 14.9 3.2 14.9-5.6 0-8.6-9.4-12.4-18.8-7.8m46.3-.2c-16.6 6-24.2 17.8-23.3 36.3.7 14 9.4 27.8 20.8 32.6 5.5 2.3 18.6 2.7 25.2.8 9.8-2.8 19.5-13.6 22.4-24.7 7.4-29-18.3-54.7-45.1-45m18.7 7.3c9.4 6.6 12.6 35.4 5.5 48.2-5.9 10.5-17.9 11.4-24.1 1.8-4.9-7.5-6-30.3-2.1-41.4 3.5-9.8 13.3-13.9 20.7-8.6m55.8-8.5c-5.2 1.9-19.6 7.6-20.3 8-1.3.8 1.4 4.3 3.4 4.3 5.7 0 5.7-.2 5.8 27l.2 25h-3.5c-4 0-5 1.1-4.2 4.6l.7 2.4 16.2-.2 16.2-.3v-3c0-2.6-.4-3-3-3.3-1.6-.2-3.3-.9-3.7-1.5-1.5-2.3-.9-40.6.6-43.5 5.9-11.3 19.6-12.2 22.6-1.4.5 2 1 13.3 1 24.9v21.3h-3.9c-4.6 0-5.1.5-4.4 4.3l.5 2.7h32.8v-2.8c0-3.4-1.6-5.2-4.7-5.2-2.6 0-2.4 2.3-2.3-26.5.1-14.3.4-18.5 1.6-20.3 4.6-7 16.5-8.3 21.1-2.3.9 1.2 1.2 8.4 1.3 25.8v24.3h-4c-3.9 0-4 .1-4 3.5v3.5h17c15.7 0 17-.1 18-1.9 1.7-3.2.2-5-4.3-5.3l-4.2-.3-.5-24.5c-.6-26.5-1-28.6-6.7-35-7.2-8.1-30.6-4-36 6.3l-1.6 3.2-2.3-5.1c-4.4-10.1-15.4-12.2-28.4-5.5-4.1 2.1-7.5 4.3-7.5 4.9s-.5 1.6-1.1 2.2c-.9.9-1.4-.3-1.9-4.9-.7-6.3-1.7-7.2-6.5-5.4m127.5 1c-9.9 3.6-15.5 9.8-15.5 17.2 0 4.9 4.7 7.3 10 5.1 2.8-1.2 7-9.3 7-13.4 0-4.2 9-5.8 14-2.4 4 2.7 4.8 4.9 4.9 14l.1 6.8h-3.4c-8.5 0-25.8 8.7-31.1 15.7-4.5 5.9-4.9 7.8-3.5 14.6 2.9 14.1 21.8 18.6 33.3 7.8 3-2.7 5.2-4.1 5.4-3.4 2.6 7.5 14.1 11.6 22.6 7.9 4.2-1.8 8.1-6.1 7.4-8-.7-1.8-4.2-2.2-5.2-.6-.3.5-1.9 1-3.5 1-3.9 0-3.9 0-4.3-26.5-.4-27-1.3-29.7-11.7-35.1-5.2-2.6-19.9-3-26.5-.7m20.7 44.3c-.3 11.5-.4 12-2.9 14-9.7 7.6-20.5 2.7-18.9-8.8 1-7.6 5.4-12.4 14.5-15.7 7.7-2.9 7.6-3 7.3 10.5m-733.7 69.6c-.6.2-.9 7.4-.7 19.4l.3 19.1 14.2-.3 14.2-.3.3-3.2.3-3.2-4.8.2c-2.6.1-7.4.1-10.5-.1l-5.7-.2-.3-15.8-.3-15.7-3-.2c-1.6-.1-3.4 0-4 .3m42.4 1.4c-15.2 8-14.6 29.6.9 35.4 14.2 5.4 27.5-1.4 28.9-14.7 1.7-16.6-15.3-28.4-29.8-20.7m16.6 6.3c7.3 4.1 8.2 14.7 1.9 21-7 7-20.8 1.9-22.1-8.1-1.5-11 10.2-18.5 20.2-12.9m16.5-7.3c0 .6 1.9 4.7 4.1 9.3 2.3 4.5 5.9 12.7 8 18.2 4 10.6 3.5 10.1 10.7 9.7 2.4-.2 2.9-.8 3.9-4.5.7-2.4 3.7-10.1 6.8-17.3 7.5-17.2 7.3-16.4 3.9-16.4-4.2 0-4.7.7-8.3 9.5-7.6 18.5-10 22.8-10.1 17.7 0-.9-2.4-7.3-5.3-14.2l-5.2-12.5-4.3-.3c-2.5-.2-4.2.1-4.2.8m46.7-.3c-.2.5-.2 9.3.1 19.8l.4 19 13.7-.3c7.5-.2 13.7-.5 13.8-.6.2-.1.4-1.3.5-2.7.3-2.4.2-2.4-10.7-2.9l-11-.5-.3-4.3c-.4-5.3 1.1-6 12.1-5.8l7.8.1-.6-2.5c-.9-3.6-2.1-4-11.2-4H778v-9h22.1l-.3-3.3-.3-3.2-13.7-.3c-7.5-.1-13.8.1-14.1.5m76.4 1c-1.8.9-4.2 3.1-5.2 4.7-4.6 7.6-.7 13.2 11.1 16.1 8.7 2.1 10 2.9 10 6.1 0 4.8-10 6.1-17.6 2.2-4.9-2.4-5-2.4-5.9 1.5-1 3.9 5.2 6.6 15.1 6.7 11 0 17.5-5.4 16-13.3-.8-4.2-4.1-6.3-14.7-9.1-8.9-2.5-11.5-7.3-5.2-9.7 3.5-1.3 10.5-.5 13.8 1.7 2.8 1.8 4 .6 3.3-3.8-.6-4.7-13.5-6.6-20.7-3.1m40.4 0c-9.8 5.1-13.8 18.2-8.7 28.3 4 8.2 18 11.8 27.5 7.1 6-2.9 6.7-4.5 3.5-7.8l-2.5-2.5-2.6 2.6c-7.6 7.6-20.7 1.4-20.7-9.8 0-11 11.9-17.2 20.3-10.6 3.3 2.6 4.1 2.5 6.2-.7 1.7-2.5 1.7-2.7-.1-4.1-5.7-4.3-17.1-5.6-22.9-2.5m34.3-1c-1.6.4-1.7 2-1.1 18.6.3 10 .7 18.4.9 18.6s6.6.5 14.1.5l13.8.1v-6l-6.7.3c-3.7.2-8.5.1-10.7-.3l-4.1-.7v-5c0-4.8.1-4.9 2.8-4.8 1.5.1 5.8.2 9.5.1l6.8-.1-.3-2.8-.3-2.7H929v-9.5h10c9.5 0 10.1-.1 10.9-2.3 1.6-4.4.7-4.7-12.8-4.6-6.9.1-13.4.3-14.3.6m39 0c-1.6.4-1.8 2.2-1.8 19.3 0 20.1.1 20.6 4.8 18.9 2.9-1 3-1.2 2.6-6.2-1-12.4-1.1-21.6-.3-21.1.5.3.9 1.1.9 1.9 0 .7 4.3 6.5 9.6 12.9 9 11 9.7 11.6 13.2 11.6h3.7l.3-18.4c.2-19.8.1-20.2-4.8-19.1l-3 .7v24.2l-3.6-3.5c-2-1.8-6.3-7-9.7-11.4-5.8-7.8-8.5-10.6-9.6-10.4-.3.1-1.4.3-2.3.6m40.5 0c-.7.2-1.3 1.9-1.3 3.6v3.2h13.5l.5 15.5.5 15.5h6l.3-15.2.3-15.2 4.7-.7c2.6-.4 5.4-.8 6.2-.8 1.9-.1 2.5-3.3 1-5.1-1.2-1.5-28.5-2.2-31.7-.8m38.9 18.5.3 19.3h29l.3-3.1.3-3-9.1.1c-13.5.3-14 .1-14-5.1v-4.4h19.1l-.3-3.3c-.3-3.5.1-3.4-13-3.6l-5.8-.1v-9h22.1l-.3-3.3-.3-3.2-14.3-.3-14.2-.3zm39.8-18.6c-1.3.4-1.5 3.5-1.6 19.4v19h11c13.1 0 17.3-1.5 22.8-8 8-9.3 4.9-22.3-6.6-28.2-4-2.1-21.3-3.6-25.6-2.2m21.7 8.3c15.3 7 4.2 27.3-12.8 23.6l-2.9-.7v-11.7c0-6.5.3-12.1.7-12.4 1.3-1.4 10.9-.6 15 1.2m41.3 9.3c0 19.9.3 21.1 4.6 20.6l2.9-.3-.3-12.5c-.3-14.3-1.4-14.3 9.5-.4 11.5 14.6 10.5 13.7 14.2 12.9l3.4-.7-.7-6.1c-.3-3.3-.6-11.8-.6-18.9v-12.9l-3.2.3-3.3.3.1 13.3c.1 12.2 0 13-1.4 11-8.5-12.4-19.6-24.8-22.3-24.8h-2.9zm54-9.7c-2.2 4.7-4 8.8-4 9 0 .3-1.8 4.4-4 9-5.2 11.1-5.5 13-1.5 13 2.6 0 3.3-.6 5.3-4.8l2.3-4.8 9.6.3 9.6.3 1.4 4.9c1.3 4.3 1.7 4.7 3.6 4.1 1.2-.4 3-.7 4-.8 2.3-.2 2.6.7-5.4-16.7-3.9-8.5-7.7-17-8.5-18.8-1.2-2.7-1.9-3.2-4.9-3.2-3.4 0-3.6.2-7.5 8.5m12.1 9.4c1.6 3.5 2.9 6.5 2.9 6.8 0 .5-13.2-.7-13.8-1.3-.2-.1 1.1-4 2.9-8.5 3-7.5 3.4-8 4.2-5.8.6 1.3 2.3 5.3 3.8 8.8m16.6-17.2c-1.4.3-1.7 1.1-1.3 2.6.3 1.2.6 2.5.6 2.9 0 .5 2.9.8 6.4.8h6.4l.7 3.6c.3 2 .3 8.1-.1 13.5-.9 12.6-.3 14.9 3.6 14.9 3.5 0 3.3 1.1 3.1-15.5-.1-17-.3-16.5 6.9-16.5 6 0 8-1.7 5.9-5.1-.8-1.4-28-2.4-32.2-1.2m39-.1c-.4.4-.7 6.7-.7 13.9 0 12.1.2 13.5 2.3 16.6 4.8 7.2 16.2 10.1 24.3 6.3 5.8-2.7 6.8-6 7.2-22.2l.4-14.2h-7.2v11.2c-.1 16.6-3.3 22.4-11.5 20.4-6.8-1.7-7.9-4.2-8.5-18.8l-.5-13.3-2.5-.3c-1.4-.2-2.9 0-3.3.4m45.6 0c-1.1.5-.9 33.5.2 37.1.3.7 1.8 1.3 3.5 1.3h3v-12h5c4.8 0 4.9.1 6.8 4.2 2.3 5.3 4.2 6.9 9.2 7.8 5.1.9 5.1-.1 0-7.3-4.7-6.5-4.9-7.4-1.4-8.3 5.1-1.3 7.2-11.9 3.3-16.8-3.6-4.6-7.5-5.9-18.4-6.3-5.5-.1-10.5 0-11.2.3m22.1 8.4c5.1 5.5 1.2 10.9-8.4 11.7l-6.5.5-.1-7.2-.1-7.2 6.8.4c4.3.2 7.4.9 8.3 1.8m31.9-8.3c-.7.2-1.3.8-1.3 1.3 0 .4-2.6 6.4-5.9 13.2-10.8 22.6-11.7 25.4-8.3 24.4.9-.2 2.6-.7 3.8-1 1.3-.4 2.8-2.3 3.7-4.7l1.6-4 9.8.3 9.8.3 1.3 4c1.6 4.8 1.4 4.6 5.2 4.9 5.5.4 5.6.9-4.8-22.4-8.1-18.1-8.8-18.8-14.9-16.3m7.6 16.3c1.7 4.1 3.1 7.6 3.1 7.7 0 .3-13.5-.9-13.9-1.3-.4-.3 2.8-8.5 5.1-13.2 1.5-2.9 2.1-2.2 5.7 6.8m22.8-16.3c-.4.3-.7 9.1-.7 19.5v18.8h14.4c13.7 0 14.5-.1 15.1-2 1.3-4-1-5-11.5-5h-9.7l-.7-6.1c-.3-3.4-.6-10.6-.6-16v-9.9h-2.8c-1.6 0-3.2.3-3.5.7m35.1 17.8c-.2 10.2-.1 19 0 19.5.2.6 5.7 1 13.3 1h13l-.3-3.3-.3-3.2-9.3-.3-9.3-.3.2-14.8c.2-16.4 0-17.1-4.1-17.1h-2.9zm25.8-17.7c-.5.9 4.1 8.4 10.5 16.8 3.7 4.9 3.9 5.4 3.9 12.8 0 7.2.2 7.7 2.5 8.8 4.1 1.8 5.5-.3 5.5-8.2 0-6.6.2-7.1 6.2-16.6 3.4-5.5 6.5-10.1 7-10.2 2.3-1 .7-4.2-2-4.2-3.4 0-4.6 1.2-10.2 10.7-5 8.4-4.8 8.4-11-1.9-2.4-4-4.8-7.6-5.4-8-1.5-1-6.4-1-7 0m39.1 30.9c-4.6 3.3-4.6 3.4.2 6.1 4.3 2.4 7.1 1 7.1-3.5 0-4.4-3.2-5.5-7.3-2.6m-686.8.4c-1.4 1.4-1.8 2.6-1.3 3.7.4.9 1 4.1 1.2 6.9.5 6.8 2.3 6.9 5.6.2 3-5.9 3.2-7.6 1-10.7-1.9-2.8-3.8-2.8-6.5-.1"/></svg>